<?xml version="1.0" encoding="UTF-8"?>
<svg width="4853px" height="594px" viewBox="0 0 4853 594" version="1.1" xmlns="http://www.w3.org/2000/svg" xmlns:xlink="http://www.w3.org/1999/xlink">
    <title>XLerobot Pinc</title>
    <g id="Page-1" stroke="none" stroke-width="1" fill="none" fill-rule="evenodd">
        <g id="XLerobot-Pinc" fill="#314047" fill-rule="nonzero">
            <polygon id="Path" points="232.242038 231.854396 334.834395 38 462.605096 38 300.261146 309.245879 472 585 339.343949 585 233.745223 387.764423 128.146497 585 0 585 166.477707 309.245879 4.13375796 38 131.152866 38"></polygon>
            <polygon id="Path" points="637.655319 500.846154 881 500.846154 881 585 528 585 528 38 637.655319 38"></polygon>
            <path d="M1115.8177,594 C1057.29715,594 1010.53073,575.255776 975.51844,537.767328 C940.506147,500.27888 923,452.668552 923,394.936342 L923,379.940963 C923,319.709523 939.568318,270.09981 972.704953,231.111825 C1005.84159,192.123839 1050.2947,172.754807 1106.06428,173.002343 C1160.83351,173.002343 1203.34844,189.499648 1233.60906,222.489482 C1263.86969,255.479316 1279,300.090569 1279,356.323241 L1279,415.929873 L1036.66491,415.929873 L1035.91465,418.17918 C1037.91535,444.920939 1046.85599,466.914162 1062.73656,484.158848 C1078.61714,501.403534 1100.18721,510.025877 1127.44679,510.025877 C1151.7053,510.025877 1171.83737,507.589128 1187.84299,502.715629 C1203.84861,497.842131 1221.35476,490.156999 1240.36143,479.660234 L1269.99684,547.13944 C1253.49104,560.635281 1231.85845,571.819335 1205.09905,580.691601 C1178.33966,589.563867 1148.57921,594 1115.8177,594 Z M1106.06428,257.353738 C1085.80717,257.353738 1069.80155,265.101351 1058.04742,280.596576 C1046.29329,296.091801 1039.04074,316.460524 1036.28978,341.702746 L1037.41517,343.577168 L1171.71233,343.577168 L1171.71233,333.830172 C1171.71233,310.587334 1166.27292,292.030552 1155.3941,278.159827 C1144.51528,264.289101 1128.07201,257.353738 1106.06428,257.353738 Z" id="Shape"></path>
            <path d="M1556.375,274.055354 L1516.25,272.92559 C1500,272.92559 1486.625,276.314882 1476.125,283.093466 C1465.625,289.872051 1457.625,299.412281 1452.125,311.714156 L1452.125,587 L1343,587 L1343,179.53176 L1444.625,179.53176 L1449.5,239.785844 C1459,218.445856 1471.3125,201.813218 1486.4375,189.887931 C1501.5625,177.962644 1519,172 1538.75,172 C1544.25,172 1549.3125,172.439353 1553.9375,173.318058 C1558.5625,174.196763 1563.25,175.263763 1568,176.519056 L1556.375,274.055354 Z" id="Path"></path>
            <path d="M1596,379.563669 C1596,319.081627 1612.88051,269.533838 1646.64153,230.920303 C1680.40255,192.306768 1727.16781,173 1786.93732,173 C1846.9569,173 1893.97225,192.244286 1927.98335,230.732858 C1961.99445,269.221431 1979,318.831701 1979,379.563669 L1979,387.436331 C1979,448.418225 1962.05697,498.090977 1928.17091,536.454586 C1894.28485,574.818195 1847.45707,594 1787.68756,594 C1727.66797,594 1680.71515,574.818195 1646.82909,536.454586 C1612.94303,498.090977 1596,448.418225 1596,387.436331 L1596,379.563669 Z M1705.16063,387.436331 C1705.16063,424.425349 1711.66275,454.104037 1724.66699,476.472395 C1737.67124,498.840754 1758.67809,510.024933 1787.68756,510.024933 C1815.94678,510.024933 1836.64104,498.778272 1849.77032,476.284951 C1862.89961,453.79163 1869.46425,424.175423 1869.46425,387.436331 L1869.46425,379.563669 C1869.46425,343.574354 1862.83709,314.208074 1849.58276,291.464826 C1836.32844,268.721579 1815.44662,257.349955 1786.93732,257.349955 C1758.67809,257.349955 1737.98384,268.784061 1724.85455,291.652271 C1711.72527,314.520481 1705.16063,343.82428 1705.16063,379.563669 L1705.16063,387.436331 Z" id="Shape"></path>
            <path d="M2413,394.121442 C2413,454.736243 2399.5,503.203036 2372.5,539.521822 C2345.5,575.840607 2306.5,594 2255.5,594 C2232,594 2211.4375,589.053131 2193.8125,579.159393 C2176.1875,569.265655 2161.25,554.800759 2149,535.764706 L2140.75,586.110057 L2047,586.110057 L2047,0 L2156.125,0 L2156.125,222.796964 C2167.875,206.516129 2181.9375,193.99241 2198.3125,185.225806 C2214.6875,176.459203 2233.5,172.075901 2254.75,172.075901 C2306.25,172.075901 2345.5,191.550285 2372.5,230.499051 C2399.5,269.447818 2413,321.358634 2413,386.231499 L2413,394.121442 Z M2303.875,386.231499 C2303.875,346.656546 2298.0625,315.28463 2286.4375,292.11575 C2274.8125,268.946869 2255,257.362429 2227,257.362429 C2210,257.362429 2195.625,260.931689 2183.875,268.070209 C2172.125,275.208729 2162.875,285.41556 2156.125,298.690702 L2156.125,470.766603 C2162.875,483.039848 2172.1875,492.432638 2184.0625,498.944972 C2195.9375,505.457306 2210.5,508.713472 2227.75,508.713472 C2256,508.713472 2275.75,498.757116 2287,478.844402 C2298.25,458.931689 2303.875,430.690702 2303.875,394.121442 L2303.875,386.231499 Z" id="Shape"></path>
            <path d="M2465,379.563669 C2465,319.081627 2481.88051,269.533838 2515.64153,230.920303 C2549.40255,192.306768 2596.16781,173 2655.93732,173 C2715.9569,173 2762.97225,192.244286 2796.98335,230.732858 C2830.99445,269.221431 2848,318.831701 2848,379.563669 L2848,387.436331 C2848,448.418225 2831.05697,498.090977 2797.17091,536.454586 C2763.28485,574.818195 2716.45707,594 2656.68756,594 C2596.66797,594 2549.71515,574.818195 2515.82909,536.454586 C2481.94303,498.090977 2465,448.418225 2465,387.436331 L2465,379.563669 Z M2574.16063,387.436331 C2574.16063,424.425349 2580.66275,454.104037 2593.66699,476.472395 C2606.67124,498.840754 2627.67809,510.024933 2656.68756,510.024933 C2684.94678,510.024933 2705.64104,498.778272 2718.77032,476.284951 C2731.89961,453.79163 2738.46425,424.175423 2738.46425,387.436331 L2738.46425,379.563669 C2738.46425,343.574354 2731.83709,314.208074 2718.58276,291.464826 C2705.32844,268.721579 2684.44662,257.349955 2655.93732,257.349955 C2627.67809,257.349955 2606.98384,268.784061 2593.85455,291.652271 C2580.72527,314.520481 2574.16063,343.82428 2574.16063,379.563669 L2574.16063,387.436331 Z" id="Shape"></path>
            <path d="M3046.18336,80 L3046.18336,179.568713 L3114.60863,179.568713 L3114.60863,256.593567 L3046.18336,256.593567 L3046.18336,463.621345 C3046.18336,479.402047 3049.44171,490.673977 3055.9584,497.437135 C3062.47509,504.200292 3071.24756,507.581871 3082.27581,507.581871 C3088.04058,507.581871 3092.99076,507.268762 3097.12635,506.642544 C3101.26194,506.016326 3106.0868,504.951754 3111.60092,503.44883 L3121,582.72807 C3109.97175,586.48538 3099.19414,589.303363 3088.66718,591.182018 C3078.14022,593.060673 3066.736,594 3054.45455,594 C3016.6076,594 2987.47047,583.604776 2967.04314,562.814327 C2946.61582,542.023879 2936.40216,509.084795 2936.40216,463.997076 L2936.40216,256.593567 L2877,256.593567 L2877,179.568713 L2936.40216,179.568713 L2936.40216,80 L3046.18336,80 Z" id="Path"></path>
            <path d="M3494.59786,386.637363 L3494.59786,585 L3385,585 L3385,38 L3602.69437,38 C3665.50045,38 3714.91957,54.029304 3750.95174,86.0879121 C3786.98391,118.14652 3805,160.348672 3805,212.694368 C3805,265.040064 3786.98391,307.116987 3750.95174,338.925137 C3714.91957,370.733288 3665.50045,386.637363 3602.69437,386.637363 L3494.59786,386.637363 Z M3494.59786,302.10783 L3602.69437,302.10783 C3633.22163,302.10783 3656.36729,293.780105 3672.13137,277.124657 C3687.89544,260.469208 3695.77748,239.242903 3695.77748,213.445742 C3695.77748,187.147665 3687.958,165.420444 3672.31903,148.26408 C3656.68007,131.107715 3633.47185,122.529533 3602.69437,122.529533 L3494.59786,122.529533 L3494.59786,302.10783 Z" id="Shape"></path>
            <path d="M3993,586 L3883,586 L3883,179.55641 L3993,179.55641 L3993,586 Z M3993,82.2653846 L3883,82.2653846 L3883,0 L3993,0 L3993,82.2653846 Z" id="Shape"></path>
            <path d="M4181.39661,179.53176 L4186.29056,237.902904 C4199.84305,217.065033 4216.5327,200.871748 4236.35949,189.323049 C4256.18628,177.77435 4278.39731,172 4302.99258,172 C4344.152,172 4376.27642,184.929522 4399.36585,210.788566 C4422.45528,236.64761 4434,277.193587 4434,332.426497 L4434,587 L4323.69777,587 L4323.69777,332.803085 C4323.69777,305.437689 4318.17639,286.043406 4307.13362,274.620236 C4296.09084,263.197066 4279.4012,257.485481 4257.06469,257.485481 C4242.50831,257.485481 4229.45776,260.43542 4217.91304,266.335299 C4206.36833,272.235178 4196.7059,280.58288 4188.92577,291.378403 L4188.92577,587 L4079,587 L4079,179.53176 L4181.39661,179.53176 Z" id="Path"></path>
            <path d="M4687.50851,510.024933 C4707.06097,510.024933 4722.72801,504.339121 4734.50962,492.967498 C4746.29124,481.595874 4752.18205,466.412882 4752.18205,447.418522 L4851.82441,447.418522 L4852.95244,449.667854 C4853.95513,490.655684 4838.4761,524.957999 4806.51534,552.5748 C4774.55458,580.1916 4734.88563,594 4687.50851,594 C4626.84573,594 4580.09529,574.880677 4547.25717,536.64203 C4514.41906,498.403384 4498,449.292965 4498,389.310775 L4498,378.064114 C4498,318.331849 4514.35639,269.221431 4547.06917,230.732858 C4579.78194,192.244286 4626.46972,173 4687.1325,173 C4737.26702,173 4777.68798,187.24577 4808.39538,215.737311 C4839.10278,244.228851 4853.95513,281.71772 4852.95244,328.203918 L4852.20042,330.45325 L4752.18205,330.45325 C4752.18205,309.459484 4746.41657,292.027159 4734.88563,278.156278 C4723.35469,264.285396 4707.43698,257.349955 4687.1325,257.349955 C4658.05447,257.349955 4637.56199,268.596616 4625.65504,291.089938 C4613.74809,313.583259 4607.79461,342.574651 4607.79461,378.064114 L4607.79461,389.310775 C4607.79461,425.550015 4613.74809,454.728851 4625.65504,476.847284 C4637.56199,498.965717 4658.17981,510.024933 4687.50851,510.024933 Z" id="Path"></path>
        </g>
    </g>
</svg>